<svg xmlns="http://www.w3.org/2000/svg" width="91" height="79" xmlns:v="https://vecta.io/nano"><path d="M90.141 8.649V21.21H0V8.649C0 3.873 3.938 0 8.794 0h72.552c4.857 0 8.794 3.873 8.794 8.649z" fill="#f8ec7d"/><path d="M39.73 8.061c1.84.006 3.325 1.468 3.319 3.266s-1.502 3.25-3.342 3.245-3.325-1.468-3.319-3.266 1.502-3.25 3.342-3.245z" fill="#e48e66"/><path d="M90.141 21.724v47.695c0 4.747-3.938 8.594-8.794 8.594H8.794C3.938 78.013 0 74.166 0 69.419V21.724h90.141z" fill="#eec251"/><path d="M24.766 8.016c1.84.006 3.326 1.468 3.32 3.266s-1.502 3.25-3.342 3.245-3.326-1.468-3.32-3.266a3.22 3.22 0 0 1 .982-2.3 3.37 3.37 0 0 1 2.359-.945zM9.803 7.969c1.84.005 3.328 1.467 3.322 3.266s-1.501 3.252-3.342 3.246-3.328-1.467-3.322-3.266a3.22 3.22 0 0 1 .982-2.3 3.37 3.37 0 0 1 2.359-.946z" fill="#e48e66"/><path d="M35.55 57.001a1.58 1.58 0 0 1-1.014-.364l-10.125-8.415c-.349-.291-.55-.716-.55-1.163a1.51 1.51 0 0 1 .55-1.162l10.125-8.415c.658-.547 1.646-.47 2.206.172a1.5 1.5 0 0 1-.176 2.154l-8.725 7.252 8.726 7.252c.5.415.68 1.09.454 1.691s-.813 1-1.47.999h-.001zm19.041 0c-.657.001-1.243-.398-1.47-.999s-.045-1.276.454-1.691l8.726-7.252-8.727-7.252a1.5 1.5 0 0 1-.176-2.154c.56-.642 1.548-.719 2.206-.172l10.126 8.415a1.51 1.51 0 0 1 .55 1.162c0 .447-.201.873-.55 1.163l-10.126 8.415c-.283.235-.642.364-1.013.364h0zm-13.283 6.628c-.464 0-.903-.205-1.196-.557a1.48 1.48 0 0 1-.312-1.258l6.203-28.805c.175-.813.99-1.333 1.822-1.162s1.363.969 1.188 1.782L42.81 62.434c-.149.695-.777 1.194-1.503 1.195h0z" fill="#d7ad41"/></svg>