<svg xmlns="http://www.w3.org/2000/svg" viewBox="0 0 37 37" fill="#454360" fill-rule="evenodd" opacity=".1" xmlns:v="https://vecta.io/nano"><rect width="4" height="4" rx="2"/><rect x="11" width="4" height="4" rx="2"/><rect x="22" width="4" height="4" rx="2"/><rect x="33" width="4" height="4" rx="2"/><rect y="11" width="4" height="4" rx="2"/><rect x="11" y="11" width="4" height="4" rx="2"/><rect x="22" y="11" width="4" height="4" rx="2"/><rect x="33" y="11" width="4" height="4" rx="2"/><rect y="22" width="4" height="4" rx="2"/><rect x="11" y="22" width="4" height="4" rx="2"/><rect x="22" y="22" width="4" height="4" rx="2"/><rect x="33" y="22" width="4" height="4" rx="2"/><rect y="33" width="4" height="4" rx="2"/><rect x="11" y="33" width="4" height="4" rx="2"/><rect x="22" y="33" width="4" height="4" rx="2"/><rect x="33" y="33" width="4" height="4" rx="2"/></svg>